<mxfile host="app.diagrams.net" modified="2023-08-01T11:15:29.184Z" agent="Mozilla/5.0 (Windows NT 10.0; Win64; x64) AppleWebKit/537.36 (KHTML, like Gecko) Chrome/113.0.0.0 Safari/537.36" etag="6L-ELaM21CQN4Yllz8fQ" version="21.5.2" type="github">
  <diagram name="第 1 页" id="SGmCnN1Zvix3lcvsJ56Q">
    <mxGraphModel dx="1646" dy="410" grid="1" gridSize="10" guides="1" tooltips="1" connect="0" arrows="0" fold="1" page="1" pageScale="1" pageWidth="827" pageHeight="1169" math="0" shadow="0">
      <root>
        <mxCell id="0" />
        <mxCell id="1" parent="0" />
        <mxCell id="JKgt6mUA8x5CWi21oNbL-108" value="0&lt;sup&gt;4&lt;/sup&gt;" style="text;html=1;fillColor=none;align=center;verticalAlign=middle;whiteSpace=wrap;rounded=0;fontSize=12;fontFamily=Helvetica;" vertex="1" parent="1">
          <mxGeometry x="90" y="260" width="40" height="20" as="geometry" />
        </mxCell>
        <mxCell id="JKgt6mUA8x5CWi21oNbL-1" value="&amp;nbsp;int sub(int a,int b){&lt;br&gt;&amp;nbsp; &amp;nbsp; &amp;nbsp;int c=0;&lt;br&gt;&amp;nbsp; &amp;nbsp; &amp;nbsp;if a&amp;gt;b&lt;br&gt;&amp;nbsp; &amp;nbsp; &amp;nbsp; &amp;nbsp; &amp;nbsp;c=a-b;&lt;br&gt;&amp;nbsp; &amp;nbsp; &amp;nbsp;else&lt;br&gt;&amp;nbsp; &amp;nbsp; &amp;nbsp; &amp;nbsp; &amp;nbsp;c=b-a;&lt;br&gt;&amp;nbsp; &amp;nbsp; &amp;nbsp;return c;&lt;br&gt;&amp;nbsp;}" style="rounded=0;whiteSpace=wrap;html=1;align=left;fillColor=none;" vertex="1" parent="1">
          <mxGeometry x="10" y="60" width="110" height="140" as="geometry" />
        </mxCell>
        <mxCell id="JKgt6mUA8x5CWi21oNbL-2" value="&lt;p style=&quot;line-height: 90%; font-size: 9px;&quot;&gt;&lt;font style=&quot;font-size: 9px;&quot;&gt;function&lt;br&gt;definition&lt;/font&gt;&lt;/p&gt;" style="ellipse;whiteSpace=wrap;html=1;strokeOpacity=100;aspect=fixed;rotation=0;fillColor=none;" vertex="1" parent="1">
          <mxGeometry x="263.34000000000003" y="60" width="53.33" height="20" as="geometry" />
        </mxCell>
        <mxCell id="JKgt6mUA8x5CWi21oNbL-6" value="&lt;p style=&quot;line-height: 60%;&quot;&gt;name&lt;br&gt;&lt;/p&gt;" style="ellipse;whiteSpace=wrap;html=1;strokeOpacity=100;aspect=fixed;rotation=0;fillColor=none;" vertex="1" parent="1">
          <mxGeometry x="200" y="90" width="53.33" height="20" as="geometry" />
        </mxCell>
        <mxCell id="JKgt6mUA8x5CWi21oNbL-9" value="&lt;p style=&quot;line-height: 60%;&quot;&gt;body&lt;br&gt;&lt;/p&gt;" style="ellipse;whiteSpace=wrap;html=1;strokeOpacity=100;aspect=fixed;rotation=0;fillColor=none;" vertex="1" parent="1">
          <mxGeometry x="263.34" y="100" width="53.33" height="20" as="geometry" />
        </mxCell>
        <mxCell id="JKgt6mUA8x5CWi21oNbL-10" value="c" style="rounded=0;html=1;strokeOpacity=100;aspect=fixed;rotation=0;verticalAlign=middle;whiteSpace=wrap;fillColor=none;" vertex="1" parent="1">
          <mxGeometry x="211.67" y="120" width="29.99" height="15" as="geometry" />
        </mxCell>
        <mxCell id="JKgt6mUA8x5CWi21oNbL-12" value="b" style="rounded=0;whiteSpace=wrap;html=1;strokeOpacity=100;aspect=fixed;rotation=0;fillColor=none;" vertex="1" parent="1">
          <mxGeometry x="375.01" y="120" width="30" height="15" as="geometry" />
        </mxCell>
        <mxCell id="JKgt6mUA8x5CWi21oNbL-13" value="a" style="rounded=0;whiteSpace=wrap;html=1;strokeOpacity=100;aspect=fixed;rotation=0;fillColor=none;" vertex="1" parent="1">
          <mxGeometry x="336.67" y="120" width="30" height="15" as="geometry" />
        </mxCell>
        <mxCell id="JKgt6mUA8x5CWi21oNbL-15" value="&lt;p style=&quot;line-height: 60%;&quot;&gt;&lt;font style=&quot;font-size: 9px;&quot;&gt;parameters&lt;/font&gt;&lt;br&gt;&lt;/p&gt;" style="ellipse;whiteSpace=wrap;html=1;strokeOpacity=100;aspect=fixed;rotation=0;fillColor=none;" vertex="1" parent="1">
          <mxGeometry x="335.00000000000006" y="90" width="53.33" height="20" as="geometry" />
        </mxCell>
        <mxCell id="JKgt6mUA8x5CWi21oNbL-16" value="" style="endArrow=classic;html=1;rounded=0;exitX=0.5;exitY=1;exitDx=0;exitDy=0;entryX=0.5;entryY=0;entryDx=0;entryDy=0;fillColor=none;" edge="1" parent="1" source="JKgt6mUA8x5CWi21oNbL-2" target="JKgt6mUA8x5CWi21oNbL-6">
          <mxGeometry width="50" height="50" relative="1" as="geometry">
            <mxPoint x="258.33" y="180" as="sourcePoint" />
            <mxPoint x="308.33" y="130" as="targetPoint" />
          </mxGeometry>
        </mxCell>
        <mxCell id="JKgt6mUA8x5CWi21oNbL-17" value="" style="endArrow=classic;html=1;rounded=0;exitX=0.5;exitY=1;exitDx=0;exitDy=0;fillColor=none;" edge="1" parent="1" source="JKgt6mUA8x5CWi21oNbL-2" target="JKgt6mUA8x5CWi21oNbL-9">
          <mxGeometry width="50" height="50" relative="1" as="geometry">
            <mxPoint x="305.33" y="100" as="sourcePoint" />
            <mxPoint x="238.32999999999998" y="115" as="targetPoint" />
          </mxGeometry>
        </mxCell>
        <mxCell id="JKgt6mUA8x5CWi21oNbL-19" value="" style="endArrow=classic;html=1;rounded=0;entryX=0.5;entryY=0;entryDx=0;entryDy=0;exitX=0.5;exitY=1;exitDx=0;exitDy=0;fillColor=none;" edge="1" parent="1" source="JKgt6mUA8x5CWi21oNbL-2" target="JKgt6mUA8x5CWi21oNbL-15">
          <mxGeometry width="50" height="50" relative="1" as="geometry">
            <mxPoint x="288.33" y="90" as="sourcePoint" />
            <mxPoint x="258.33" y="135" as="targetPoint" />
          </mxGeometry>
        </mxCell>
        <mxCell id="JKgt6mUA8x5CWi21oNbL-20" value="" style="endArrow=classic;html=1;rounded=0;exitX=0.5;exitY=1;exitDx=0;exitDy=0;entryX=0.5;entryY=0;entryDx=0;entryDy=0;fillColor=none;" edge="1" parent="1" source="JKgt6mUA8x5CWi21oNbL-15" target="JKgt6mUA8x5CWi21oNbL-13">
          <mxGeometry width="50" height="50" relative="1" as="geometry">
            <mxPoint x="336.85" y="117.5" as="sourcePoint" />
            <mxPoint x="269.85" y="132.5" as="targetPoint" />
          </mxGeometry>
        </mxCell>
        <mxCell id="JKgt6mUA8x5CWi21oNbL-21" value="" style="endArrow=classic;html=1;rounded=0;exitX=0.5;exitY=1;exitDx=0;exitDy=0;entryX=0.5;entryY=0;entryDx=0;entryDy=0;fillColor=none;" edge="1" parent="1" source="JKgt6mUA8x5CWi21oNbL-15" target="JKgt6mUA8x5CWi21oNbL-12">
          <mxGeometry width="50" height="50" relative="1" as="geometry">
            <mxPoint x="379.67" y="120" as="sourcePoint" />
            <mxPoint x="361.67" y="135" as="targetPoint" />
          </mxGeometry>
        </mxCell>
        <mxCell id="JKgt6mUA8x5CWi21oNbL-22" value="" style="endArrow=classic;html=1;rounded=0;exitX=0.5;exitY=1;exitDx=0;exitDy=0;entryX=0.485;entryY=0.052;entryDx=0;entryDy=0;entryPerimeter=0;fillColor=none;" edge="1" parent="1" source="JKgt6mUA8x5CWi21oNbL-6" target="JKgt6mUA8x5CWi21oNbL-10">
          <mxGeometry width="50" height="50" relative="1" as="geometry">
            <mxPoint x="332.99" y="135" as="sourcePoint" />
            <mxPoint x="314.99" y="150" as="targetPoint" />
          </mxGeometry>
        </mxCell>
        <mxCell id="JKgt6mUA8x5CWi21oNbL-24" value="&lt;p style=&quot;line-height: 60%;&quot;&gt;&lt;font style=&quot;font-size: 10px;&quot;&gt;expression&lt;/font&gt;&lt;br&gt;&lt;/p&gt;" style="ellipse;whiteSpace=wrap;html=1;strokeOpacity=100;aspect=fixed;rotation=0;fillColor=none;" vertex="1" parent="1">
          <mxGeometry x="199.99999999999997" y="140" width="53.33" height="20" as="geometry" />
        </mxCell>
        <mxCell id="JKgt6mUA8x5CWi21oNbL-25" value="&lt;p style=&quot;line-height: 60%;&quot;&gt;&lt;font style=&quot;font-size: 9px;&quot;&gt;If statement&lt;/font&gt;&lt;br&gt;&lt;/p&gt;" style="ellipse;whiteSpace=wrap;html=1;strokeOpacity=100;aspect=fixed;rotation=0;fillColor=none;" vertex="1" parent="1">
          <mxGeometry x="258.34" y="140" width="53.33" height="20" as="geometry" />
        </mxCell>
        <mxCell id="JKgt6mUA8x5CWi21oNbL-26" value="&lt;p style=&quot;line-height: 60%;&quot;&gt;return&lt;br&gt;&lt;/p&gt;" style="ellipse;whiteSpace=wrap;html=1;strokeOpacity=100;aspect=fixed;rotation=0;fillColor=none;" vertex="1" parent="1">
          <mxGeometry x="316.6700000000001" y="145" width="53.33" height="20" as="geometry" />
        </mxCell>
        <mxCell id="JKgt6mUA8x5CWi21oNbL-27" value="" style="endArrow=classic;html=1;rounded=0;exitX=0.5;exitY=1;exitDx=0;exitDy=0;entryX=0.5;entryY=0;entryDx=0;entryDy=0;fillColor=none;" edge="1" parent="1" source="JKgt6mUA8x5CWi21oNbL-9" target="JKgt6mUA8x5CWi21oNbL-26">
          <mxGeometry width="50" height="50" relative="1" as="geometry">
            <mxPoint x="188.32999999999998" y="160" as="sourcePoint" />
            <mxPoint x="238.32999999999998" y="110" as="targetPoint" />
          </mxGeometry>
        </mxCell>
        <mxCell id="JKgt6mUA8x5CWi21oNbL-29" value="" style="endArrow=classic;html=1;rounded=0;entryX=0.5;entryY=0;entryDx=0;entryDy=0;exitX=0.5;exitY=1;exitDx=0;exitDy=0;fillColor=none;" edge="1" parent="1" source="JKgt6mUA8x5CWi21oNbL-9" target="JKgt6mUA8x5CWi21oNbL-25">
          <mxGeometry width="50" height="50" relative="1" as="geometry">
            <mxPoint x="188.32999999999998" y="160" as="sourcePoint" />
            <mxPoint x="238.32999999999998" y="110" as="targetPoint" />
          </mxGeometry>
        </mxCell>
        <mxCell id="JKgt6mUA8x5CWi21oNbL-30" value="" style="endArrow=classic;html=1;rounded=0;entryX=0.5;entryY=0;entryDx=0;entryDy=0;exitX=0.5;exitY=1;exitDx=0;exitDy=0;fillColor=none;" edge="1" parent="1" source="JKgt6mUA8x5CWi21oNbL-9" target="JKgt6mUA8x5CWi21oNbL-24">
          <mxGeometry width="50" height="50" relative="1" as="geometry">
            <mxPoint x="241.32999999999998" y="155" as="sourcePoint" />
            <mxPoint x="315.33" y="180" as="targetPoint" />
          </mxGeometry>
        </mxCell>
        <mxCell id="JKgt6mUA8x5CWi21oNbL-34" value="c" style="rounded=0;whiteSpace=wrap;html=1;strokeOpacity=100;aspect=fixed;rotation=0;fillColor=none;" vertex="1" parent="1">
          <mxGeometry x="375" y="165" width="30" height="15" as="geometry" />
        </mxCell>
        <mxCell id="JKgt6mUA8x5CWi21oNbL-35" value="" style="endArrow=classic;html=1;rounded=0;entryX=-0.022;entryY=0.549;entryDx=0;entryDy=0;entryPerimeter=0;exitX=0.532;exitY=1.036;exitDx=0;exitDy=0;exitPerimeter=0;fillColor=none;" edge="1" parent="1" source="JKgt6mUA8x5CWi21oNbL-26" target="JKgt6mUA8x5CWi21oNbL-34">
          <mxGeometry width="50" height="50" relative="1" as="geometry">
            <mxPoint x="260.00000000000006" y="140" as="sourcePoint" />
            <mxPoint x="310" y="90" as="targetPoint" />
          </mxGeometry>
        </mxCell>
        <mxCell id="JKgt6mUA8x5CWi21oNbL-36" value="&lt;p style=&quot;line-height: 60%;&quot;&gt;&lt;font style=&quot;font-size: 10px;&quot;&gt;assignment&lt;/font&gt;&lt;br&gt;&lt;/p&gt;" style="ellipse;whiteSpace=wrap;html=1;strokeOpacity=100;aspect=fixed;rotation=0;fillColor=none;" vertex="1" parent="1">
          <mxGeometry x="180.01" y="167.5" width="53.33" height="20" as="geometry" />
        </mxCell>
        <mxCell id="JKgt6mUA8x5CWi21oNbL-38" value="&lt;p style=&quot;line-height: 60%;&quot;&gt;&lt;font style=&quot;font-size: 10px;&quot;&gt;right&lt;/font&gt;&lt;br&gt;&lt;/p&gt;" style="ellipse;whiteSpace=wrap;html=1;strokeOpacity=100;aspect=fixed;rotation=0;fillColor=none;" vertex="1" parent="1">
          <mxGeometry x="223.33999999999997" y="200" width="40" height="15" as="geometry" />
        </mxCell>
        <mxCell id="JKgt6mUA8x5CWi21oNbL-39" value="&lt;p style=&quot;line-height: 60%;&quot;&gt;&lt;font style=&quot;font-size: 10px;&quot;&gt;left&lt;/font&gt;&lt;br&gt;&lt;/p&gt;" style="ellipse;whiteSpace=wrap;html=1;strokeOpacity=100;aspect=fixed;rotation=0;fillColor=none;" vertex="1" parent="1">
          <mxGeometry x="176.67" y="200" width="40" height="15" as="geometry" />
        </mxCell>
        <mxCell id="JKgt6mUA8x5CWi21oNbL-40" value="x" style="rounded=0;whiteSpace=wrap;html=1;strokeOpacity=100;aspect=fixed;rotation=0;fillColor=none;" vertex="1" parent="1">
          <mxGeometry x="181.67" y="230" width="30" height="15" as="geometry" />
        </mxCell>
        <mxCell id="JKgt6mUA8x5CWi21oNbL-41" value="0" style="rounded=0;whiteSpace=wrap;html=1;strokeOpacity=100;aspect=fixed;rotation=0;fillColor=none;" vertex="1" parent="1">
          <mxGeometry x="228.33999999999997" y="230" width="30" height="15" as="geometry" />
        </mxCell>
        <mxCell id="JKgt6mUA8x5CWi21oNbL-42" value="" style="endArrow=classic;html=1;rounded=0;fontFamily=Helvetica;fontSize=12;fontColor=default;exitX=0.396;exitY=0.983;exitDx=0;exitDy=0;exitPerimeter=0;fillColor=none;" edge="1" parent="1" source="JKgt6mUA8x5CWi21oNbL-24" target="JKgt6mUA8x5CWi21oNbL-36">
          <mxGeometry width="50" height="50" relative="1" as="geometry">
            <mxPoint x="271.67" y="180" as="sourcePoint" />
            <mxPoint x="321.67" y="130" as="targetPoint" />
          </mxGeometry>
        </mxCell>
        <mxCell id="JKgt6mUA8x5CWi21oNbL-43" value="" style="endArrow=classic;html=1;rounded=0;fontFamily=Helvetica;fontSize=12;fontColor=default;entryX=0.48;entryY=-0.029;entryDx=0;entryDy=0;entryPerimeter=0;exitX=0.46;exitY=1.015;exitDx=0;exitDy=0;exitPerimeter=0;fillColor=none;" edge="1" parent="1" source="JKgt6mUA8x5CWi21oNbL-36" target="JKgt6mUA8x5CWi21oNbL-39">
          <mxGeometry width="50" height="50" relative="1" as="geometry">
            <mxPoint x="221.67" y="200" as="sourcePoint" />
            <mxPoint x="239.67" y="190" as="targetPoint" />
          </mxGeometry>
        </mxCell>
        <mxCell id="JKgt6mUA8x5CWi21oNbL-45" value="" style="endArrow=classic;html=1;rounded=0;fontFamily=Helvetica;fontSize=12;fontColor=default;exitX=0.448;exitY=1.023;exitDx=0;exitDy=0;exitPerimeter=0;entryX=0.513;entryY=0.047;entryDx=0;entryDy=0;entryPerimeter=0;fillColor=none;" edge="1" parent="1" source="JKgt6mUA8x5CWi21oNbL-36" target="JKgt6mUA8x5CWi21oNbL-38">
          <mxGeometry width="50" height="50" relative="1" as="geometry">
            <mxPoint x="233.67" y="209" as="sourcePoint" />
            <mxPoint x="210.67" y="215" as="targetPoint" />
          </mxGeometry>
        </mxCell>
        <mxCell id="JKgt6mUA8x5CWi21oNbL-46" value="" style="endArrow=classic;html=1;rounded=0;fontFamily=Helvetica;fontSize=12;fontColor=default;entryX=0.495;entryY=-0.033;entryDx=0;entryDy=0;entryPerimeter=0;exitX=0.504;exitY=0.967;exitDx=0;exitDy=0;exitPerimeter=0;fillColor=none;" edge="1" parent="1" source="JKgt6mUA8x5CWi21oNbL-39" target="JKgt6mUA8x5CWi21oNbL-40">
          <mxGeometry width="50" height="50" relative="1" as="geometry">
            <mxPoint x="121.67" y="240" as="sourcePoint" />
            <mxPoint x="171.67" y="190" as="targetPoint" />
          </mxGeometry>
        </mxCell>
        <mxCell id="JKgt6mUA8x5CWi21oNbL-47" value="" style="endArrow=classic;html=1;rounded=0;fontFamily=Helvetica;fontSize=12;fontColor=default;exitX=0.492;exitY=1;exitDx=0;exitDy=0;exitPerimeter=0;entryX=0.489;entryY=0;entryDx=0;entryDy=0;entryPerimeter=0;fillColor=none;" edge="1" parent="1" source="JKgt6mUA8x5CWi21oNbL-38" target="JKgt6mUA8x5CWi21oNbL-41">
          <mxGeometry width="50" height="50" relative="1" as="geometry">
            <mxPoint x="211.67" y="230" as="sourcePoint" />
            <mxPoint x="242.67" y="230" as="targetPoint" />
          </mxGeometry>
        </mxCell>
        <mxCell id="JKgt6mUA8x5CWi21oNbL-48" value="&lt;p style=&quot;line-height: 60%;&quot;&gt;&lt;font style=&quot;font-size: 10px;&quot;&gt;condition&lt;/font&gt;&lt;br&gt;&lt;/p&gt;" style="ellipse;whiteSpace=wrap;html=1;strokeOpacity=100;aspect=fixed;rotation=0;fillColor=none;" vertex="1" parent="1">
          <mxGeometry x="248.33999999999997" y="167.5" width="53.33" height="20" as="geometry" />
        </mxCell>
        <mxCell id="JKgt6mUA8x5CWi21oNbL-49" value="" style="endArrow=classic;html=1;rounded=0;fontFamily=Helvetica;fontSize=12;fontColor=default;entryX=0.495;entryY=-0.055;entryDx=0;entryDy=0;entryPerimeter=0;exitX=0.47;exitY=1.021;exitDx=0;exitDy=0;exitPerimeter=0;fillColor=none;" edge="1" parent="1" source="JKgt6mUA8x5CWi21oNbL-25" target="JKgt6mUA8x5CWi21oNbL-48">
          <mxGeometry width="50" height="50" relative="1" as="geometry">
            <mxPoint x="211.67" y="190" as="sourcePoint" />
            <mxPoint x="261.67" y="140" as="targetPoint" />
          </mxGeometry>
        </mxCell>
        <mxCell id="JKgt6mUA8x5CWi21oNbL-50" value="" style="endArrow=none;html=1;rounded=0;fontFamily=Helvetica;fontSize=12;fontColor=default;entryX=0.451;entryY=1.035;entryDx=0;entryDy=0;entryPerimeter=0;fillColor=none;" edge="1" parent="1" target="JKgt6mUA8x5CWi21oNbL-25">
          <mxGeometry width="50" height="50" relative="1" as="geometry">
            <mxPoint x="321.67" y="170" as="sourcePoint" />
            <mxPoint x="331.66" y="187.5" as="targetPoint" />
          </mxGeometry>
        </mxCell>
        <mxCell id="JKgt6mUA8x5CWi21oNbL-51" value="&lt;p style=&quot;line-height: 60%;&quot;&gt;&lt;font style=&quot;font-size: 10px;&quot;&gt;right&lt;/font&gt;&lt;br&gt;&lt;/p&gt;" style="ellipse;whiteSpace=wrap;html=1;strokeOpacity=100;aspect=fixed;rotation=0;fillColor=none;" vertex="1" parent="1">
          <mxGeometry x="361.67" y="200" width="40" height="15" as="geometry" />
        </mxCell>
        <mxCell id="JKgt6mUA8x5CWi21oNbL-52" value="&lt;p style=&quot;line-height: 60%;&quot;&gt;&lt;font style=&quot;font-size: 10px;&quot;&gt;left&lt;/font&gt;&lt;br&gt;&lt;/p&gt;" style="ellipse;whiteSpace=wrap;html=1;strokeOpacity=100;aspect=fixed;rotation=0;fillColor=none;" vertex="1" parent="1">
          <mxGeometry x="270.01000000000005" y="200" width="40" height="15" as="geometry" />
        </mxCell>
        <mxCell id="JKgt6mUA8x5CWi21oNbL-53" value="&lt;p style=&quot;line-height: 60%;&quot;&gt;&lt;font style=&quot;font-size: 10px;&quot;&gt;operator&lt;/font&gt;&lt;br&gt;&lt;/p&gt;" style="ellipse;whiteSpace=wrap;html=1;strokeOpacity=100;aspect=fixed;rotation=0;fillColor=none;" vertex="1" parent="1">
          <mxGeometry x="316.67" y="200" width="40" height="15" as="geometry" />
        </mxCell>
        <mxCell id="JKgt6mUA8x5CWi21oNbL-54" value="" style="endArrow=classic;html=1;rounded=0;fontFamily=Helvetica;fontSize=12;fontColor=default;exitX=0.523;exitY=0.993;exitDx=0;exitDy=0;exitPerimeter=0;entryX=0.48;entryY=0.049;entryDx=0;entryDy=0;entryPerimeter=0;fillColor=none;" edge="1" parent="1" source="JKgt6mUA8x5CWi21oNbL-48" target="JKgt6mUA8x5CWi21oNbL-52">
          <mxGeometry width="50" height="50" relative="1" as="geometry">
            <mxPoint x="241.67" y="230" as="sourcePoint" />
            <mxPoint x="291.67" y="180" as="targetPoint" />
          </mxGeometry>
        </mxCell>
        <mxCell id="JKgt6mUA8x5CWi21oNbL-55" value="" style="endArrow=classic;html=1;rounded=0;fontFamily=Helvetica;fontSize=12;fontColor=default;entryX=0.535;entryY=0.022;entryDx=0;entryDy=0;entryPerimeter=0;exitX=0.518;exitY=1.002;exitDx=0;exitDy=0;exitPerimeter=0;fillColor=none;" edge="1" parent="1" source="JKgt6mUA8x5CWi21oNbL-48" target="JKgt6mUA8x5CWi21oNbL-53">
          <mxGeometry width="50" height="50" relative="1" as="geometry">
            <mxPoint x="257.67" y="230" as="sourcePoint" />
            <mxPoint x="259.67" y="241" as="targetPoint" />
          </mxGeometry>
        </mxCell>
        <mxCell id="JKgt6mUA8x5CWi21oNbL-56" value="" style="endArrow=classic;html=1;rounded=0;fontFamily=Helvetica;fontSize=12;fontColor=default;entryX=0.522;entryY=0.033;entryDx=0;entryDy=0;entryPerimeter=0;exitX=0.515;exitY=1.015;exitDx=0;exitDy=0;exitPerimeter=0;fillColor=none;" edge="1" parent="1" source="JKgt6mUA8x5CWi21oNbL-48" target="JKgt6mUA8x5CWi21oNbL-51">
          <mxGeometry width="50" height="50" relative="1" as="geometry">
            <mxPoint x="292.67" y="210" as="sourcePoint" />
            <mxPoint x="342.67" y="215" as="targetPoint" />
          </mxGeometry>
        </mxCell>
        <mxCell id="JKgt6mUA8x5CWi21oNbL-57" value="a" style="rounded=0;whiteSpace=wrap;html=1;strokeOpacity=100;aspect=fixed;rotation=0;fillColor=none;" vertex="1" parent="1">
          <mxGeometry x="275.01000000000005" y="230" width="30" height="15" as="geometry" />
        </mxCell>
        <mxCell id="JKgt6mUA8x5CWi21oNbL-58" value="&amp;gt;" style="rounded=0;whiteSpace=wrap;html=1;strokeOpacity=100;aspect=fixed;rotation=0;fillColor=none;" vertex="1" parent="1">
          <mxGeometry x="321.67" y="230" width="30" height="15" as="geometry" />
        </mxCell>
        <mxCell id="JKgt6mUA8x5CWi21oNbL-59" value="b" style="rounded=0;whiteSpace=wrap;html=1;strokeOpacity=100;aspect=fixed;rotation=0;fillColor=none;" vertex="1" parent="1">
          <mxGeometry x="366.67" y="230" width="30" height="15" as="geometry" />
        </mxCell>
        <mxCell id="JKgt6mUA8x5CWi21oNbL-60" value="" style="endArrow=classic;html=1;rounded=0;fontFamily=Helvetica;fontSize=12;fontColor=default;entryX=0.489;entryY=0.036;entryDx=0;entryDy=0;entryPerimeter=0;exitX=0.486;exitY=1.03;exitDx=0;exitDy=0;exitPerimeter=0;fillColor=none;" edge="1" parent="1" source="JKgt6mUA8x5CWi21oNbL-52" target="JKgt6mUA8x5CWi21oNbL-57">
          <mxGeometry width="50" height="50" relative="1" as="geometry">
            <mxPoint x="276.67" y="260" as="sourcePoint" />
            <mxPoint x="276.67" y="270" as="targetPoint" />
          </mxGeometry>
        </mxCell>
        <mxCell id="JKgt6mUA8x5CWi21oNbL-61" value="" style="endArrow=classic;html=1;rounded=0;fontFamily=Helvetica;fontSize=12;fontColor=default;entryX=0.512;entryY=0.022;entryDx=0;entryDy=0;entryPerimeter=0;exitX=0.482;exitY=1.03;exitDx=0;exitDy=0;exitPerimeter=0;fillColor=none;" edge="1" parent="1" source="JKgt6mUA8x5CWi21oNbL-53" target="JKgt6mUA8x5CWi21oNbL-58">
          <mxGeometry width="50" height="50" relative="1" as="geometry">
            <mxPoint x="300.67" y="230" as="sourcePoint" />
            <mxPoint x="301.67" y="241" as="targetPoint" />
          </mxGeometry>
        </mxCell>
        <mxCell id="JKgt6mUA8x5CWi21oNbL-62" value="" style="endArrow=classic;html=1;rounded=0;fontFamily=Helvetica;fontSize=12;fontColor=default;entryX=0.503;entryY=0.022;entryDx=0;entryDy=0;entryPerimeter=0;exitX=0.499;exitY=1.059;exitDx=0;exitDy=0;exitPerimeter=0;fillColor=none;" edge="1" parent="1" source="JKgt6mUA8x5CWi21oNbL-51" target="JKgt6mUA8x5CWi21oNbL-59">
          <mxGeometry width="50" height="50" relative="1" as="geometry">
            <mxPoint x="340.67" y="230" as="sourcePoint" />
            <mxPoint x="341.67" y="240" as="targetPoint" />
          </mxGeometry>
        </mxCell>
        <mxCell id="JKgt6mUA8x5CWi21oNbL-63" value="....." style="text;html=1;fillColor=none;align=center;verticalAlign=middle;whiteSpace=wrap;rounded=0;fontSize=12;fontFamily=Helvetica;" vertex="1" parent="1">
          <mxGeometry x="301.67" y="157.5" width="60" height="30" as="geometry" />
        </mxCell>
        <mxCell id="JKgt6mUA8x5CWi21oNbL-64" value="&amp;nbsp;int sub(int a&lt;sup&gt;1&lt;/sup&gt;,int b&lt;sup&gt;2&lt;/sup&gt;){&lt;br&gt;&amp;nbsp; &amp;nbsp; &amp;nbsp;int c&lt;sup&gt;3&lt;/sup&gt;=0&lt;sup&gt;4&lt;/sup&gt;;&lt;br&gt;&amp;nbsp; &amp;nbsp; &amp;nbsp;if a&lt;sup&gt;5&lt;/sup&gt;&amp;gt;b&lt;sup&gt;6&lt;/sup&gt;&lt;br&gt;&amp;nbsp; &amp;nbsp; &amp;nbsp; &amp;nbsp; &amp;nbsp;c&lt;sup&gt;7&lt;/sup&gt;=a&lt;sup&gt;8&lt;/sup&gt;-b&lt;sup&gt;9&lt;/sup&gt;;&lt;br&gt;&amp;nbsp; &amp;nbsp; &amp;nbsp;else&lt;br&gt;&amp;nbsp; &amp;nbsp; &amp;nbsp; &amp;nbsp; &amp;nbsp;c&lt;sup&gt;10&lt;/sup&gt;=b&lt;sup&gt;11&lt;/sup&gt;-a&lt;sup&gt;12&lt;/sup&gt;;&lt;br&gt;&amp;nbsp; &amp;nbsp; &amp;nbsp;return c&lt;sup&gt;13&lt;/sup&gt;;&lt;br&gt;&amp;nbsp;}" style="rounded=0;whiteSpace=wrap;html=1;align=left;fillColor=none;" vertex="1" parent="1">
          <mxGeometry x="215.01" y="280" width="120" height="140" as="geometry" />
        </mxCell>
        <mxCell id="JKgt6mUA8x5CWi21oNbL-66" value="a&lt;sup&gt;1&lt;/sup&gt;" style="text;html=1;fillColor=none;align=center;verticalAlign=middle;whiteSpace=wrap;rounded=0;fontSize=12;fontFamily=Helvetica;direction=east;" vertex="1" parent="1">
          <mxGeometry x="40" y="285" width="40" height="20" as="geometry" />
        </mxCell>
        <mxCell id="JKgt6mUA8x5CWi21oNbL-67" value="b&lt;sup&gt;2&lt;/sup&gt;" style="text;html=1;fillColor=none;align=center;verticalAlign=middle;whiteSpace=wrap;rounded=0;fontSize=12;fontFamily=Helvetica;direction=east;" vertex="1" parent="1">
          <mxGeometry x="80" y="285" width="40" height="20" as="geometry" />
        </mxCell>
        <mxCell id="JKgt6mUA8x5CWi21oNbL-68" value="a&lt;sup&gt;5&lt;/sup&gt;" style="text;html=1;fillColor=none;align=center;verticalAlign=middle;whiteSpace=wrap;rounded=0;fontSize=12;fontFamily=Helvetica;direction=east;" vertex="1" parent="1">
          <mxGeometry x="40" y="315" width="40" height="20" as="geometry" />
        </mxCell>
        <mxCell id="JKgt6mUA8x5CWi21oNbL-69" value="b&lt;sup&gt;6&lt;/sup&gt;" style="text;html=1;fillColor=none;align=center;verticalAlign=middle;whiteSpace=wrap;rounded=0;fontSize=12;fontFamily=Helvetica;direction=east;" vertex="1" parent="1">
          <mxGeometry x="80" y="315" width="40" height="20" as="geometry" />
        </mxCell>
        <mxCell id="JKgt6mUA8x5CWi21oNbL-70" value="a&lt;sup&gt;8&lt;/sup&gt;" style="text;html=1;fillColor=none;align=center;verticalAlign=middle;whiteSpace=wrap;rounded=0;fontSize=12;fontFamily=Helvetica;direction=east;" vertex="1" parent="1">
          <mxGeometry x="40" y="345" width="40" height="20" as="geometry" />
        </mxCell>
        <mxCell id="JKgt6mUA8x5CWi21oNbL-71" value="a9" style="text;html=1;fillColor=none;align=center;verticalAlign=middle;whiteSpace=wrap;rounded=0;fontSize=12;fontFamily=Helvetica;direction=east;" vertex="1" parent="1">
          <mxGeometry x="80" y="345" width="40" height="20" as="geometry" />
        </mxCell>
        <mxCell id="JKgt6mUA8x5CWi21oNbL-73" value="c&lt;sup&gt;7&lt;/sup&gt;" style="text;html=1;fillColor=none;align=center;verticalAlign=middle;whiteSpace=wrap;rounded=0;fontSize=12;fontFamily=Helvetica;direction=east;" vertex="1" parent="1">
          <mxGeometry x="40" y="375" width="40" height="17.5" as="geometry" />
        </mxCell>
        <mxCell id="JKgt6mUA8x5CWi21oNbL-74" value="c&lt;sup&gt;10&lt;/sup&gt;" style="text;html=1;fillColor=none;align=center;verticalAlign=middle;whiteSpace=wrap;rounded=0;fontSize=12;fontFamily=Helvetica;direction=east;" vertex="1" parent="1">
          <mxGeometry x="80" y="372.5" width="40" height="20" as="geometry" />
        </mxCell>
        <mxCell id="JKgt6mUA8x5CWi21oNbL-75" value="c&lt;span style=&quot;font-size: 10px;&quot;&gt;&lt;sup&gt;13&lt;/sup&gt;&lt;/span&gt;" style="text;html=1;fillColor=none;align=center;verticalAlign=middle;whiteSpace=wrap;rounded=0;fontSize=12;fontFamily=Helvetica;direction=east;" vertex="1" parent="1">
          <mxGeometry x="60" y="400" width="40" height="20" as="geometry" />
        </mxCell>
        <mxCell id="JKgt6mUA8x5CWi21oNbL-76" value="" style="endArrow=classicThin;html=1;rounded=0;fontFamily=Helvetica;fontSize=12;fontColor=default;endFill=1;fillColor=none;" edge="1" parent="1" source="JKgt6mUA8x5CWi21oNbL-66" target="JKgt6mUA8x5CWi21oNbL-68">
          <mxGeometry width="50" height="50" relative="1" as="geometry">
            <mxPoint x="10" y="375" as="sourcePoint" />
            <mxPoint x="60" y="315" as="targetPoint" />
          </mxGeometry>
        </mxCell>
        <mxCell id="JKgt6mUA8x5CWi21oNbL-77" value="" style="endArrow=classicThin;html=1;rounded=0;fontFamily=Helvetica;fontSize=12;fontColor=default;endFill=1;fillColor=none;" edge="1" parent="1" source="JKgt6mUA8x5CWi21oNbL-67" target="JKgt6mUA8x5CWi21oNbL-69">
          <mxGeometry width="50" height="50" relative="1" as="geometry">
            <mxPoint x="100" y="305" as="sourcePoint" />
            <mxPoint x="100" y="315" as="targetPoint" />
          </mxGeometry>
        </mxCell>
        <mxCell id="JKgt6mUA8x5CWi21oNbL-80" value="" style="endArrow=classicThin;html=1;rounded=0;fontFamily=Helvetica;fontSize=12;fontColor=default;endFill=1;fillColor=none;" edge="1" parent="1" source="JKgt6mUA8x5CWi21oNbL-68" target="JKgt6mUA8x5CWi21oNbL-70">
          <mxGeometry width="50" height="50" relative="1" as="geometry">
            <mxPoint x="60.360000000000014" y="334.82" as="sourcePoint" />
            <mxPoint x="60" y="345" as="targetPoint" />
          </mxGeometry>
        </mxCell>
        <mxCell id="JKgt6mUA8x5CWi21oNbL-82" value="" style="endArrow=classicThin;html=1;rounded=0;fontFamily=Helvetica;fontSize=12;fontColor=default;endFill=1;fillColor=none;" edge="1" parent="1" source="JKgt6mUA8x5CWi21oNbL-69" target="JKgt6mUA8x5CWi21oNbL-71">
          <mxGeometry width="50" height="50" relative="1" as="geometry">
            <mxPoint x="70" y="345" as="sourcePoint" />
            <mxPoint x="70" y="355" as="targetPoint" />
          </mxGeometry>
        </mxCell>
        <mxCell id="JKgt6mUA8x5CWi21oNbL-84" value="" style="endArrow=classicThin;html=1;rounded=0;fontFamily=Helvetica;fontSize=12;fontColor=default;endFill=1;fillColor=none;" edge="1" parent="1" source="JKgt6mUA8x5CWi21oNbL-70" target="JKgt6mUA8x5CWi21oNbL-73">
          <mxGeometry width="50" height="50" relative="1" as="geometry">
            <mxPoint x="20" y="355" as="sourcePoint" />
            <mxPoint x="20" y="365" as="targetPoint" />
          </mxGeometry>
        </mxCell>
        <mxCell id="JKgt6mUA8x5CWi21oNbL-85" value="" style="endArrow=classicThin;html=1;rounded=0;fontFamily=Helvetica;fontSize=12;fontColor=default;endFill=1;fillColor=none;" edge="1" parent="1" source="JKgt6mUA8x5CWi21oNbL-71">
          <mxGeometry width="50" height="50" relative="1" as="geometry">
            <mxPoint x="100" y="365" as="sourcePoint" />
            <mxPoint x="100" y="375" as="targetPoint" />
          </mxGeometry>
        </mxCell>
        <mxCell id="JKgt6mUA8x5CWi21oNbL-86" value="" style="endArrow=classicThin;html=1;rounded=0;fontFamily=Helvetica;fontSize=12;fontColor=default;entryX=0.489;entryY=0.102;entryDx=0;entryDy=0;entryPerimeter=0;endFill=1;exitX=0.489;exitY=0.102;exitDx=0;exitDy=0;exitPerimeter=0;fillColor=none;" edge="1" parent="1" target="JKgt6mUA8x5CWi21oNbL-74">
          <mxGeometry width="50" height="50" relative="1" as="geometry">
            <mxPoint x="60" y="365" as="sourcePoint" />
            <mxPoint x="20" y="365" as="targetPoint" />
          </mxGeometry>
        </mxCell>
        <mxCell id="JKgt6mUA8x5CWi21oNbL-87" value="" style="endArrow=classicThin;html=1;rounded=0;fontFamily=Helvetica;fontSize=12;fontColor=default;entryX=0.518;entryY=0.013;entryDx=0;entryDy=0;entryPerimeter=0;exitX=0.53;exitY=1.023;exitDx=0;exitDy=0;exitPerimeter=0;endFill=1;fillColor=none;" edge="1" parent="1">
          <mxGeometry width="50" height="50" relative="1" as="geometry">
            <mxPoint x="100.4799999999999" y="365" as="sourcePoint" />
            <mxPoint x="59.999999999999886" y="374.7675" as="targetPoint" />
          </mxGeometry>
        </mxCell>
        <mxCell id="JKgt6mUA8x5CWi21oNbL-88" value="" style="endArrow=classicThin;html=1;rounded=0;fontFamily=Helvetica;fontSize=12;fontColor=default;entryX=0.531;entryY=0.097;entryDx=0;entryDy=0;entryPerimeter=0;endFill=1;exitX=0.531;exitY=0.097;exitDx=0;exitDy=0;exitPerimeter=0;fillColor=none;" edge="1" parent="1" target="JKgt6mUA8x5CWi21oNbL-75">
          <mxGeometry width="50" height="50" relative="1" as="geometry">
            <mxPoint x="60" y="395" as="sourcePoint" />
            <mxPoint x="20" y="365" as="targetPoint" />
          </mxGeometry>
        </mxCell>
        <mxCell id="JKgt6mUA8x5CWi21oNbL-89" value="" style="endArrow=classicThin;html=1;rounded=0;fontFamily=Helvetica;fontSize=12;fontColor=default;entryX=0.531;entryY=0.105;entryDx=0;entryDy=0;entryPerimeter=0;endFill=1;exitX=0.531;exitY=0.105;exitDx=0;exitDy=0;exitPerimeter=0;fillColor=none;" edge="1" parent="1" target="JKgt6mUA8x5CWi21oNbL-75">
          <mxGeometry width="50" height="50" relative="1" as="geometry">
            <mxPoint x="100" y="395" as="sourcePoint" />
            <mxPoint x="91" y="412" as="targetPoint" />
          </mxGeometry>
        </mxCell>
        <mxCell id="JKgt6mUA8x5CWi21oNbL-105" value="" style="endArrow=classicThin;html=1;rounded=0;fontFamily=Helvetica;fontSize=12;fontColor=default;entryX=-0.006;entryY=0.525;entryDx=0;entryDy=0;entryPerimeter=0;endFill=1;fillColor=none;" edge="1" parent="1">
          <mxGeometry width="50" height="50" relative="1" as="geometry">
            <mxPoint x="50" y="295" as="sourcePoint" />
            <mxPoint x="49.75999999999999" y="355.5" as="targetPoint" />
            <Array as="points">
              <mxPoint x="40" y="295" />
              <mxPoint x="40" y="355" />
            </Array>
          </mxGeometry>
        </mxCell>
        <mxCell id="JKgt6mUA8x5CWi21oNbL-106" value="" style="endArrow=classicThin;html=1;rounded=0;fontFamily=Helvetica;fontSize=12;fontColor=default;entryX=0.966;entryY=0.514;entryDx=0;entryDy=0;entryPerimeter=0;endFill=1;fillColor=none;" edge="1" parent="1">
          <mxGeometry width="50" height="50" relative="1" as="geometry">
            <mxPoint x="120.00000000000011" y="294.72" as="sourcePoint" />
            <mxPoint x="108.63999999999999" y="355" as="targetPoint" />
            <Array as="points">
              <mxPoint x="110" y="294.72" />
              <mxPoint x="120" y="294.72" />
              <mxPoint x="120" y="354.72" />
            </Array>
          </mxGeometry>
        </mxCell>
        <mxCell id="JKgt6mUA8x5CWi21oNbL-107" value="&lt;span style=&quot;border-color: var(--border-color);&quot;&gt;&lt;font style=&quot;font-size: 12px;&quot;&gt;c&lt;sup&gt;3&lt;/sup&gt;&lt;/font&gt;&lt;/span&gt;" style="text;html=1;fillColor=none;align=center;verticalAlign=middle;whiteSpace=wrap;rounded=0;fontSize=12;fontFamily=Helvetica;" vertex="1" parent="1">
          <mxGeometry x="30" y="260" width="40" height="20" as="geometry" />
        </mxCell>
        <mxCell id="JKgt6mUA8x5CWi21oNbL-109" value="" style="endArrow=classicThin;html=1;rounded=0;fontFamily=Helvetica;fontSize=12;fontColor=default;endFill=1;fillColor=none;" edge="1" parent="1" source="JKgt6mUA8x5CWi21oNbL-108" target="JKgt6mUA8x5CWi21oNbL-107">
          <mxGeometry width="50" height="50" relative="1" as="geometry">
            <mxPoint x="90" y="300" as="sourcePoint" />
            <mxPoint x="71" y="307" as="targetPoint" />
          </mxGeometry>
        </mxCell>
        <mxCell id="JKgt6mUA8x5CWi21oNbL-113" value="" style="endArrow=classicThin;html=1;rounded=0;fontFamily=Helvetica;fontSize=12;fontColor=default;endFill=1;fillColor=none;" edge="1" parent="1">
          <mxGeometry width="50" height="50" relative="1" as="geometry">
            <mxPoint x="130" y="129.76" as="sourcePoint" />
            <mxPoint x="190" y="130.04" as="targetPoint" />
          </mxGeometry>
        </mxCell>
        <mxCell id="JKgt6mUA8x5CWi21oNbL-114" value="" style="endArrow=classicThin;html=1;rounded=0;fontFamily=Helvetica;fontSize=12;fontColor=default;endFill=1;fillColor=none;" edge="1" parent="1">
          <mxGeometry width="50" height="50" relative="1" as="geometry">
            <mxPoint x="201.66" y="330" as="sourcePoint" />
            <mxPoint x="121.66" y="330" as="targetPoint" />
          </mxGeometry>
        </mxCell>
        <mxCell id="JKgt6mUA8x5CWi21oNbL-115" value="" style="endArrow=classicThin;html=1;rounded=0;fontFamily=Helvetica;fontSize=12;fontColor=default;endFill=1;entryX=0.46;entryY=-0.005;entryDx=0;entryDy=0;entryPerimeter=0;fillColor=none;" edge="1" parent="1" target="JKgt6mUA8x5CWi21oNbL-64">
          <mxGeometry width="50" height="50" relative="1" as="geometry">
            <mxPoint x="270" y="250" as="sourcePoint" />
            <mxPoint x="293" y="250" as="targetPoint" />
          </mxGeometry>
        </mxCell>
        <mxCell id="JKgt6mUA8x5CWi21oNbL-117" value="" style="endArrow=none;dashed=1;html=1;rounded=0;fontFamily=Helvetica;fontSize=12;fontColor=default;fillColor=none;" edge="1" parent="1">
          <mxGeometry width="50" height="50" relative="1" as="geometry">
            <mxPoint x="160" y="420" as="sourcePoint" />
            <mxPoint x="160" y="40" as="targetPoint" />
          </mxGeometry>
        </mxCell>
        <mxCell id="JKgt6mUA8x5CWi21oNbL-118" value="" style="endArrow=none;dashed=1;html=1;rounded=0;fontFamily=Helvetica;fontSize=12;fontColor=default;fillColor=none;" edge="1" parent="1">
          <mxGeometry width="50" height="50" relative="1" as="geometry">
            <mxPoint x="419.17" y="250" as="sourcePoint" />
            <mxPoint x="-0.83" y="250" as="targetPoint" />
          </mxGeometry>
        </mxCell>
        <mxCell id="JKgt6mUA8x5CWi21oNbL-119" value="&lt;b&gt;Source Code&lt;/b&gt;" style="text;html=1;fillColor=none;align=center;verticalAlign=middle;whiteSpace=wrap;rounded=0;fontSize=12;fontFamily=Helvetica;" vertex="1" parent="1">
          <mxGeometry x="10" y="30" width="88.34" height="30" as="geometry" />
        </mxCell>
        <mxCell id="JKgt6mUA8x5CWi21oNbL-120" value="&lt;b&gt;AST&lt;/b&gt;" style="text;html=1;fillColor=none;align=center;verticalAlign=middle;whiteSpace=wrap;rounded=0;fontSize=12;fontFamily=Helvetica;" vertex="1" parent="1">
          <mxGeometry x="245.84" y="30" width="88.34" height="30" as="geometry" />
        </mxCell>
        <mxCell id="JKgt6mUA8x5CWi21oNbL-121" value="&lt;b&gt;Variable Sequence&lt;/b&gt;" style="text;html=1;fillColor=none;align=center;verticalAlign=middle;whiteSpace=wrap;rounded=0;fontSize=12;fontFamily=Helvetica;rotation=90;" vertex="1" parent="1">
          <mxGeometry x="291.87" y="315" width="139.58" height="30" as="geometry" />
        </mxCell>
        <mxCell id="JKgt6mUA8x5CWi21oNbL-122" value="&lt;b&gt;Variable Relation&lt;/b&gt;" style="text;html=1;fillColor=none;align=center;verticalAlign=middle;whiteSpace=wrap;rounded=0;fontSize=12;fontFamily=Helvetica;rotation=90;" vertex="1" parent="1">
          <mxGeometry x="-49.579999999999984" y="315" width="139.58" height="30" as="geometry" />
        </mxCell>
      </root>
    </mxGraphModel>
  </diagram>
</mxfile>
